<svg xmlns="http://www.w3.org/2000/svg" xmlns:xlink="http://www.w3.org/1999/xlink" width="1080" zoomAndPan="magnify" viewBox="0 0 810 809.999993" height="1080" preserveAspectRatio="xMidYMid meet" version="1.0"><path fill="#f29f58" d="M 703.3125 425.019531 C 702.296875 423.40625 701.1875 421.867188 700.023438 420.378906 C 699.589844 419.449219 699.058594 418.554688 698.371094 417.722656 C 697.445312 416.597656 696.480469 415.820312 695.484375 415.292969 C 688.667969 408.445312 680.203125 403.371094 670.730469 400.785156 C 669.136719 400.351562 667.496094 400.5 666.015625 401.054688 C 663.40625 400.179688 660.785156 399.347656 658.140625 398.585938 C 659.230469 393.320312 654.910156 387.101562 648.796875 389.269531 C 647.882812 389.589844 646.988281 389.949219 646.082031 390.285156 C 629.957031 377.652344 612.78125 366.359375 594.757812 356.605469 C 592.578125 355.429688 590.328125 355.359375 588.261719 356.125 C 602.082031 315.347656 615.136719 274.296875 624.554688 232.25 C 625.367188 228.625 623.945312 225.847656 621.691406 224.25 C 623.625 223 625.324219 221.429688 626.746094 219.539062 C 626.769531 219.515625 626.796875 219.492188 626.824219 219.472656 C 626.816406 219.46875 626.8125 219.464844 626.808594 219.460938 C 626.96875 219.246094 627.152344 219.066406 627.304688 218.847656 C 628.167969 217.59375 627.660156 215.71875 626.511719 214.859375 C 625.589844 214.167969 624.574219 214.105469 623.625 214.453125 C 623.628906 214.449219 623.628906 214.445312 623.632812 214.4375 C 624.292969 212.910156 624.082031 211.125 622.523438 210.210938 C 621.097656 209.378906 619.117188 209.863281 618.296875 211.320312 C 618.28125 211.351562 618.265625 211.382812 618.246094 211.410156 C 618.234375 211.425781 618.214844 211.429688 618.203125 211.445312 C 618.039062 211.648438 617.890625 211.871094 617.730469 212.078125 C 617.726562 212.074219 617.722656 212.074219 617.722656 212.070312 C 617.703125 212.101562 617.691406 212.128906 617.671875 212.152344 C 615.820312 214.550781 614.160156 217.082031 612.699219 219.714844 C 609.871094 216.988281 605.160156 216.214844 601.945312 219.613281 C 596.074219 225.832031 590.078125 231.933594 584.007812 237.960938 C 583.503906 238.011719 582.988281 238.097656 582.449219 238.25 C 553.074219 246.4375 526.710938 262.972656 506.371094 285.382812 C 501.078125 289.855469 495.984375 294.5625 491.011719 299.390625 C 489.503906 294 487.992188 288.605469 486.488281 283.214844 C 478.234375 253.734375 469.988281 224.25 461.738281 194.765625 C 461.308594 193.234375 460.570312 192.058594 459.652344 191.191406 C 459.816406 190.53125 459.808594 189.804688 459.441406 189.042969 C 455.207031 180.304688 451.785156 171.246094 449.15625 161.945312 C 448.230469 154.382812 447.046875 146.855469 445.566406 139.371094 C 444.996094 136.484375 440.082031 136.363281 439.609375 139.371094 C 439.265625 141.554688 439.097656 143.714844 439.042969 145.855469 C 438.453125 145.597656 437.835938 145.394531 437.207031 145.273438 C 433.628906 142.535156 427.625 142.5 425.578125 147.179688 C 420.222656 159.4375 416.027344 172.023438 412.507812 184.804688 C 411.976562 185.015625 411.480469 185.320312 411.117188 185.816406 C 399.042969 202.464844 390.757812 221.304688 382.609375 240.074219 C 381.578125 242.457031 383.886719 246.089844 386.589844 244.421875 C 382.796875 249.722656 379 255.023438 375.203125 260.324219 C 372.480469 264.125 369.757812 267.921875 367.035156 271.71875 C 364.613281 274.269531 362.261719 276.878906 359.890625 279.476562 C 356.148438 276.023438 352.347656 272.632812 348.527344 269.269531 C 348.777344 269.046875 349.023438 268.828125 349.269531 268.609375 C 355.058594 263.476562 348.960938 253.457031 341.753906 255.699219 C 339.542969 256.386719 337.332031 257.074219 335.125 257.765625 C 329.949219 253.441406 324.726562 249.183594 319.425781 245.011719 C 315.503906 241.050781 311.582031 237.089844 307.664062 233.128906 C 306.503906 231.957031 305.0625 231.648438 303.71875 231.90625 C 303.15625 231.066406 302.414062 230.285156 301.410156 229.621094 C 296.734375 226.519531 292.121094 223.328125 287.566406 220.066406 C 282.078125 215.710938 276.9375 210.929688 272.214844 205.628906 C 270.449219 203.652344 268.316406 203.023438 266.289062 203.285156 C 259.820312 197.820312 253.28125 192.4375 246.636719 187.1875 C 244.480469 185.484375 241.8125 184.671875 239.328125 185.207031 C 237.410156 183.332031 234.285156 182.65625 231.839844 183.984375 C 231.75 183.84375 231.652344 183.707031 231.558594 183.570312 C 231.507812 181.296875 231.457031 179.027344 231.40625 176.757812 C 231.285156 171.050781 224.902344 169.070312 220.859375 172.386719 C 220.640625 172.554688 220.382812 172.617188 220.085938 172.582031 C 214.339844 172.902344 212.457031 178.9375 215.71875 183.128906 C 216.90625 184.660156 218.097656 186.191406 219.289062 187.722656 C 219.339844 190.023438 219.390625 192.328125 219.4375 194.628906 C 219.511719 197.84375 222.015625 200.554688 225.234375 200.765625 C 224.128906 204.695312 223.019531 208.621094 221.910156 212.550781 C 220.941406 215.988281 222.660156 218.472656 225.15625 219.511719 C 224.949219 220.058594 224.722656 220.589844 224.519531 221.136719 C 223.210938 224.703125 225.824219 227.757812 228.984375 228.628906 C 229.160156 230.121094 230.015625 231.433594 231.21875 232.378906 C 230.433594 233.917969 229.617188 235.433594 228.894531 237.011719 C 227.277344 240.53125 229.0625 244.277344 231.863281 245.757812 C 229.957031 248.910156 228.050781 252.0625 226.140625 255.214844 C 223.726562 259.203125 226.554688 263.296875 230.191406 264.234375 C 230.117188 264.363281 230.039062 264.492188 229.96875 264.621094 C 226.6875 270.65625 234.664062 277.285156 239.675781 272.109375 C 239.753906 272.027344 239.835938 271.941406 239.917969 271.859375 C 238.386719 274.464844 236.855469 277.066406 235.324219 279.671875 C 232.710938 284.121094 236.8125 289.125 241.039062 289.070312 C 238.78125 292.777344 241.332031 296.730469 244.734375 297.894531 C 245.003906 300.398438 245.386719 302.882812 245.882812 305.351562 L 243.699219 308.871094 C 241.054688 313.132812 244.859375 317.898438 248.949219 318.207031 C 247.710938 321.042969 249.277344 323.882812 251.683594 325.367188 C 251.753906 325.574219 251.828125 325.78125 251.902344 325.984375 C 252.167969 327.375 252.429688 328.773438 252.699219 330.160156 C 251.484375 331.84375 250.265625 333.523438 249.046875 335.207031 C 246.378906 338.886719 249.332031 343.222656 253.058594 344.234375 C 242.359375 344.058594 231.664062 344.058594 220.96875 344.214844 C 177.425781 341.570312 133.796875 340.664062 90.1875 341.527344 C 86.027344 341.851562 82.464844 344.84375 82.464844 349.25 C 82.464844 353.300781 85.882812 356.910156 89.976562 356.953125 C 90.148438 357.375 90.308594 357.832031 90.355469 357.996094 C 90.988281 360.21875 91.054688 362.488281 90.832031 365.171875 C 90.394531 370.410156 96.097656 373.664062 100.605469 372.621094 C 106.890625 371.167969 113.175781 369.71875 119.457031 368.265625 C 119.265625 369.445312 119.128906 370.628906 118.988281 371.816406 C 118.386719 371.492188 117.789062 371.167969 117.1875 370.847656 C 109.800781 366.875 100.894531 377.035156 107.828125 382.976562 C 121.75 394.914062 137.96875 403.710938 155.320312 408.886719 C 158.292969 410.488281 161.265625 412.082031 164.234375 413.683594 C 165.359375 414.546875 166.488281 415.40625 167.632812 416.238281 C 184.339844 433.011719 201.960938 448.800781 221.308594 462.363281 C 220.203125 476.960938 219.097656 491.554688 217.988281 506.152344 C 197 534.847656 182.65625 568.339844 176.390625 603.339844 C 176.066406 605.136719 176.210938 606.933594 176.859375 608.515625 C 177.003906 610.867188 178.097656 613.046875 180.476562 614.4375 C 183.734375 616.34375 189.382812 615.515625 191.042969 611.664062 C 191.992188 609.460938 192.972656 607.273438 193.9375 605.074219 C 195.777344 602.789062 197.621094 600.503906 199.476562 598.214844 C 202.164062 600.554688 206.390625 601.265625 210 598.265625 C 242.820312 570.992188 276.890625 545.277344 312.089844 521.160156 C 315.335938 518.9375 316.085938 515.53125 315.300781 512.570312 C 316.714844 511.570312 318.085938 510.503906 319.472656 509.460938 C 322.570312 524.671875 327.242188 539.476562 334.910156 552.46875 C 337.480469 563.238281 340.015625 574.019531 342.523438 584.800781 C 341.707031 585.960938 341.207031 587.464844 341.214844 589.324219 C 341.25 595.257812 341.734375 601.113281 342.574219 606.898438 C 343.917969 624.292969 345.261719 641.6875 346.605469 659.082031 C 347.0625 664.988281 353.234375 667.949219 357.671875 666.085938 C 357.496094 667.417969 357.269531 668.742188 356.992188 670.0625 C 356.75 671.210938 357.890625 672.160156 358.851562 672.011719 C 358.726562 672.617188 358.597656 673.21875 358.472656 673.824219 C 358.472656 673.835938 358.476562 673.84375 358.476562 673.851562 C 358.472656 673.859375 358.46875 673.867188 358.46875 673.875 C 357.753906 675.382812 358.046875 677.207031 359.578125 678.101562 C 360.921875 678.886719 363.089844 678.507812 363.804688 676.992188 C 366.40625 671.476562 368.5 665.746094 370.050781 659.847656 C 371.058594 659.253906 371.976562 658.429688 372.695312 657.304688 C 374.933594 656.683594 376.914062 655.085938 377.824219 652.257812 C 379.15625 648.078125 380.640625 643.964844 382.246094 639.910156 C 388.898438 631.914062 394.363281 622.980469 398.453125 613.417969 C 400.015625 612.867188 401.410156 611.898438 402.3125 610.433594 C 418.605469 583.96875 431.488281 555.433594 440.664062 525.746094 C 454.214844 542.078125 470.355469 555.953125 488.640625 566.773438 C 487.507812 566.679688 486.496094 567.933594 487.15625 569.070312 C 495.003906 582.566406 508.03125 592.644531 523.0625 596.859375 C 523.695312 597.039062 524.246094 596.789062 524.597656 596.367188 C 528.214844 600.378906 531.886719 604.335938 535.636719 608.230469 C 536.828125 609.46875 538.417969 610.160156 540.0625 610.359375 C 542.167969 612.597656 544.675781 614.449219 547.441406 615.929688 C 549.863281 618.914062 552.402344 621.8125 555.167969 624.5 C 556.199219 625.503906 557.671875 624.695312 557.804688 623.40625 C 557.808594 623.394531 557.804688 623.382812 557.808594 623.371094 C 559.1875 623.640625 560.605469 623.558594 561.898438 623.113281 L 562.363281 623.640625 C 562.726562 624.054688 563.179688 624.171875 563.609375 624.089844 C 563.902344 624.875 564.195312 625.65625 564.484375 626.441406 C 565.1875 628.277344 568.164062 627.492188 567.464844 625.621094 C 566.761719 623.78125 566.117188 621.925781 565.515625 620.054688 C 565.851562 619.453125 566.144531 618.789062 566.332031 618.015625 C 568.296875 609.984375 567.917969 601.660156 565.257812 593.996094 C 564.980469 590.332031 564.664062 586.667969 564.328125 583.007812 C 568.195312 577.613281 566.421875 570.535156 565.847656 564.316406 C 565.449219 560 565.054688 555.6875 564.65625 551.375 C 564.925781 550.925781 565.121094 550.40625 565.109375 549.714844 C 564.832031 530.601562 562.960938 511.570312 559.714844 492.746094 C 559.464844 488.375 559.207031 484.003906 559.03125 479.628906 C 558.964844 478.015625 557.917969 477.085938 556.710938 476.785156 C 556.65625 473.394531 556.578125 470.003906 556.550781 466.617188 C 556.542969 465.960938 556.546875 465.304688 556.542969 464.648438 C 561.695312 462.71875 567.074219 461.460938 572.59375 461.050781 C 574.558594 460.90625 574.589844 457.847656 572.59375 457.964844 C 571.707031 458.011719 570.828125 458.113281 569.945312 458.195312 C 570.058594 458.148438 570.175781 458.117188 570.289062 458.078125 C 577.414062 457.660156 584.515625 456.78125 591.5625 455.445312 C 592.6875 455.234375 593.316406 454.441406 593.585938 453.507812 C 595.566406 452.261719 597.542969 451 599.496094 449.714844 C 601.496094 452.765625 605.367188 454.542969 609.546875 452.191406 C 609.703125 452.105469 609.867188 452.019531 610.023438 451.933594 C 611.597656 452.980469 613.667969 453.441406 616.121094 452.878906 C 625.175781 450.8125 634.015625 447.859375 642.527344 444.164062 C 647.171875 442.691406 651.8125 441.222656 656.472656 439.8125 C 659.847656 440.21875 663.230469 440.558594 666.609375 440.910156 C 671.945312 441.925781 677.285156 442.941406 682.621094 443.957031 C 686.195312 444.636719 689.273438 443.078125 690.957031 440.628906 C 692.457031 440.035156 693.914062 439.292969 695.269531 438.214844 C 695.886719 437.726562 696.4375 437.15625 696.972656 436.574219 C 698.1875 436.542969 699.417969 436.253906 700.550781 435.589844 C 704.054688 433.53125 705.546875 428.558594 703.3125 425.019531 Z M 180.121094 362.28125 C 183.800781 362.101562 187.480469 361.917969 191.164062 361.738281 C 187.046875 363.390625 183.035156 365.25 179.125 367.289062 C 179.519531 365.644531 179.855469 363.976562 180.121094 362.28125 Z M 191.652344 396.828125 C 191.5625 396.925781 191.507812 397.035156 191.425781 397.136719 C 190.851562 396.742188 190.269531 396.359375 189.703125 395.960938 C 190.433594 395.195312 191.183594 394.445312 191.9375 393.703125 C 192.351562 394.109375 192.789062 394.484375 193.238281 394.84375 C 193.269531 394.886719 193.300781 394.933594 193.328125 394.976562 C 192.773438 395.59375 192.226562 396.222656 191.652344 396.828125 Z M 202.316406 408.210938 C 200.582031 410.367188 199.78125 413.074219 200.351562 415.578125 C 198.789062 414.738281 197.226562 413.898438 195.667969 413.058594 C 196.808594 412.316406 197.667969 411.28125 198.230469 410.085938 C 199.714844 409.890625 201.214844 409.179688 202.574219 407.75 C 202.742188 407.554688 202.917969 407.371094 203.09375 407.1875 C 203.109375 407.203125 203.121094 407.222656 203.132812 407.238281 C 202.859375 407.5625 202.582031 407.882812 202.316406 408.210938 Z M 264.113281 339.054688 C 266.371094 337.3125 268.53125 335.46875 270.613281 333.546875 L 264.207031 341.011719 C 264.160156 340.363281 264.15625 339.707031 264.113281 339.054688 Z M 266.199219 396.621094 C 266.011719 396.488281 265.828125 396.351562 265.636719 396.21875 C 265.65625 395.296875 265.695312 394.371094 265.710938 393.449219 C 267.558594 391.421875 269.421875 389.402344 271.210938 387.320312 C 269.484375 390.390625 267.847656 393.507812 266.199219 396.621094 Z M 392.683594 321.5 C 392.355469 322.992188 391.980469 324.476562 391.660156 325.972656 C 391.238281 325.511719 390.730469 325.105469 390.1875 324.738281 C 391.019531 323.660156 391.855469 322.585938 392.683594 321.5 Z M 389.390625 505.761719 C 388.582031 507.367188 387.796875 508.984375 386.988281 510.589844 C 387.214844 507.402344 387.390625 504.207031 387.570312 501.019531 C 390.945312 497.296875 394.261719 493.527344 397.570312 489.75 C 394.847656 495.085938 392.09375 500.410156 389.390625 505.761719 Z M 388.546875 476.675781 C 388.644531 475.644531 388.746094 474.617188 388.847656 473.585938 C 389.464844 472.597656 390.117188 471.636719 390.734375 470.652344 C 395.574219 468.757812 399.191406 464.1875 401.835938 459.109375 C 402.246094 459.21875 402.65625 459.328125 403.070312 459.445312 C 398.296875 465.246094 393.476562 471.003906 388.546875 476.675781 Z M 441.957031 459.226562 C 442.839844 456.328125 443.71875 453.425781 444.601562 450.527344 C 444.835938 452.230469 445.09375 453.933594 445.371094 455.628906 C 444.253906 456.851562 443.117188 458.050781 441.957031 459.226562 Z M 448.027344 485.101562 C 448.402344 484.449219 448.773438 483.800781 449.152344 483.152344 C 451.21875 486.464844 453.316406 489.753906 455.476562 493.007812 C 452.992188 490.371094 450.511719 487.734375 448.027344 485.101562 Z M 501.4375 454.289062 C 500.796875 458.507812 500.226562 462.738281 499.71875 466.972656 C 498.863281 465.589844 497.988281 464.21875 497.132812 462.835938 C 498.605469 459.941406 499.980469 457.003906 501.289062 454.039062 C 501.339844 454.121094 501.382812 454.210938 501.4375 454.289062 Z M 491.121094 344.507812 C 491.910156 343.789062 492.710938 343.082031 493.496094 342.363281 C 496.011719 341.300781 498.488281 340.164062 500.964844 339.023438 C 498.988281 341.089844 496.976562 343.125 495.015625 345.203125 C 493.738281 346.558594 492.421875 347.90625 491.101562 349.257812 C 491.105469 347.671875 491.117188 346.089844 491.121094 344.507812 Z M 493.410156 572.890625 L 494.105469 573.289062 C 494.164062 573.488281 494.269531 573.6875 494.429688 573.875 C 497.621094 577.652344 501.113281 581.15625 504.832031 584.390625 C 500.511719 581.125 496.664062 577.25 493.410156 572.890625 Z M 512.433594 586.539062 C 514 587.125 515.609375 587.59375 517.238281 587.996094 C 518.441406 589.378906 519.652344 590.757812 520.867188 592.128906 C 517.949219 590.414062 515.136719 588.550781 512.433594 586.539062 Z M 563.128906 381.914062 C 562.921875 382.144531 562.710938 382.351562 562.515625 382.617188 C 561.5625 383.941406 560.609375 385.269531 559.660156 386.59375 C 559.652344 386.300781 559.664062 385.996094 559.621094 385.71875 C 560.464844 383.390625 561.28125 381.058594 562.117188 378.730469 C 562.703125 379.0625 563.289062 379.398438 563.878906 379.730469 C 563.625 380.457031 563.378906 381.1875 563.128906 381.914062 Z M 563.128906 381.914062 " fill-opacity="1" fill-rule="nonzero"/><path fill="#161616" d="M 739.765625 426.929688 C 694.871094 399.148438 648.417969 373.960938 600.671875 351.441406 C 612.9375 298.75 627.605469 246.636719 644.6875 195.304688 C 646.757812 189.082031 638.871094 182.84375 633.339844 186.578125 C 588.09375 217.15625 543.300781 248.398438 498.9375 280.242188 C 482.9375 226.335938 466.933594 172.433594 450.929688 118.523438 C 448.109375 109.019531 433.195312 113.066406 436.035156 122.632812 C 436.035156 122.632812 436.039062 122.636719 436.039062 122.640625 C 410.464844 168.898438 384.894531 215.15625 359.320312 261.414062 C 323.75 228.800781 285.71875 198.847656 245.59375 172.035156 C 233.535156 163.976562 221.285156 156.210938 208.871094 148.71875 C 202.878906 145.101562 196.0625 151.054688 197.523438 157.441406 C 210.980469 216.28125 224.4375 275.125 237.894531 333.964844 C 183.007812 331.597656 128.089844 330.039062 73.160156 329.355469 C 67.613281 329.285156 63.117188 336.085938 66.492188 340.976562 C 80.714844 361.605469 100.527344 377.257812 119.328125 393.480469 L 181.101562 446.773438 C 191.609375 455.839844 202.117188 464.90625 212.625 473.96875 C 195.597656 527.023438 178.566406 580.082031 161.535156 633.132812 C 160.5 636.367188 162.226562 640.183594 165.085938 641.855469 C 168.257812 643.710938 171.746094 642.828125 174.445312 640.648438 C 221.371094 602.777344 268.296875 564.914062 315.222656 527.046875 C 328.519531 582.300781 340.316406 637.914062 350.46875 693.832031 C 351.726562 700.761719 361.292969 700.839844 364.585938 695.675781 C 395.164062 647.761719 422.714844 597.964844 447.136719 546.644531 C 485.273438 584.988281 527.464844 619.25 572.855469 648.660156 C 577.546875 651.699219 584.9375 647.773438 584.476562 641.988281 C 579.871094 584.542969 575.265625 527.097656 570.660156 469.648438 C 624.804688 455.476562 680.082031 445.914062 735.871094 441.316406 C 743.328125 440.707031 746.597656 431.160156 739.765625 426.929688 Z M 450.363281 527.992188 C 447.15625 524.667969 440.347656 525.027344 438.234375 529.554688 C 415.546875 578.15625 390.011719 625.394531 361.820312 671.019531 C 351.75 617.5 340.316406 564.238281 327.371094 511.34375 C 325.867188 505.207031 318.734375 504.484375 314.460938 507.933594 C 271.039062 542.972656 227.617188 578.011719 184.199219 613.046875 C 199.128906 566.542969 214.054688 520.042969 228.980469 473.539062 C 229.765625 471.089844 228.972656 467.730469 226.992188 466.023438 C 186.875 431.410156 146.140625 397.390625 106.640625 362.078125 C 100.609375 356.683594 94.691406 351.097656 89.28125 345.074219 C 142.097656 345.890625 194.902344 347.445312 247.671875 349.816406 C 252.898438 350.050781 256.1875 344.710938 255.121094 340.042969 L 216.609375 171.648438 C 254.046875 195.242188 289.804688 221.453125 323.464844 250.191406 C 334.492188 259.605469 345.292969 269.289062 355.875 279.199219 C 359.414062 282.515625 365.527344 282.121094 368.003906 277.636719 C 392.738281 232.894531 417.472656 188.15625 442.203125 143.414062 C 457.191406 193.894531 472.175781 244.371094 487.164062 294.851562 C 488.464844 299.242188 494.328125 302.480469 498.511719 299.464844 C 539.589844 269.871094 581.078125 240.847656 622.917969 212.335938 C 608.085938 258.882812 595.191406 306.035156 584.292969 353.664062 C 583.585938 356.75 584.699219 360.917969 587.84375 362.386719 C 630.304688 382.207031 671.738281 404.167969 711.984375 428.152344 C 660.824219 433.605469 610.113281 442.988281 560.414062 456.339844 C 557.359375 457.160156 554.476562 460.464844 554.746094 463.789062 L 567.808594 626.742188 C 525.367188 597.964844 486.007812 564.882812 450.363281 527.992188 Z M 450.363281 527.992188 " fill-opacity="1" fill-rule="nonzero"/><path fill="#fff7f6" d="M 330.273438 382.191406 C 329.78125 378.535156 329.011719 374.441406 326.933594 371.316406 C 325.023438 368.445312 322.113281 366.648438 318.609375 366.617188 C 314.597656 366.585938 311.941406 369.355469 309.828125 372.367188 C 305.75 378.171875 303.628906 385.574219 303.617188 392.636719 C 303.613281 397.195312 304.265625 402.410156 307.773438 405.703125 C 307.820312 405.746094 307.875 405.769531 307.921875 405.8125 C 308.085938 406.015625 308.203125 406.242188 308.382812 406.433594 C 310.933594 409.15625 315.035156 410.265625 318.613281 409.195312 C 320.234375 408.714844 321.632812 407.898438 322.863281 406.890625 C 323.558594 406.433594 324.21875 405.921875 324.820312 405.320312 C 327.671875 402.464844 329.113281 397.992188 329.859375 394.105469 C 330.621094 390.109375 330.816406 386.210938 330.273438 382.191406 Z M 330.273438 382.191406 " fill-opacity="1" fill-rule="nonzero"/><path fill="#fff7f6" d="M 452.382812 396.972656 C 443.433594 414.644531 422.753906 418.804688 404.585938 418.242188 C 387.53125 417.714844 365.800781 412.363281 362.152344 392.832031 C 361.386719 388.726562 356.429688 386.398438 352.652344 387.4375 C 348.34375 388.621094 346.488281 392.824219 347.253906 396.9375 C 352.113281 422.949219 379.917969 432.636719 403.175781 433.636719 C 426.992188 434.660156 454.101562 427.714844 465.71875 404.769531 C 470.199219 395.921875 456.878906 388.089844 452.382812 396.972656 Z M 452.382812 396.972656 " fill-opacity="1" fill-rule="nonzero"/><path fill="#fff7f6" d="M 508.917969 402.628906 C 509.972656 397.9375 510.71875 392.375 509.550781 387.613281 C 508.707031 384.171875 506.109375 381.242188 502.714844 380.15625 C 499.75 378.410156 495.542969 378.3125 493.152344 381.140625 C 492.648438 381.734375 492.191406 382.371094 491.722656 383 C 490.878906 383.59375 490.074219 384.253906 489.386719 385.039062 C 486.269531 388.574219 484.417969 393.324219 483.613281 397.9375 C 482.867188 402.230469 482.398438 406.964844 484.011719 411.128906 C 484.160156 411.519531 484.339844 411.871094 484.507812 412.238281 C 484.753906 413.585938 485.078125 414.925781 485.527344 416.246094 C 486.816406 420.066406 490.902344 422.972656 495.027344 421.640625 C 496.300781 421.230469 497.464844 420.464844 498.421875 419.5 C 503.054688 418.199219 506.136719 413.785156 507.132812 409.230469 C 507.269531 408.605469 507.351562 407.957031 507.460938 407.324219 C 507.894531 406.371094 508.222656 405.378906 508.46875 404.359375 C 508.632812 403.785156 508.785156 403.207031 508.917969 402.628906 Z M 508.917969 402.628906 " fill-opacity="1" fill-rule="nonzero"/></svg>