<svg xmlns="http://www.w3.org/2000/svg" xmlns:xlink="http://www.w3.org/1999/xlink" width="1080" zoomAndPan="magnify" viewBox="0 0 810 809.999993" height="1080" preserveAspectRatio="xMidYMid meet" version="1.0"><path fill="#f29f58" d="M 662.960938 422.3125 C 662.082031 420.917969 661.125 419.585938 660.117188 418.300781 C 659.742188 417.496094 659.28125 416.722656 658.6875 416.003906 C 657.886719 415.03125 657.054688 414.355469 656.191406 413.898438 C 650.296875 407.980469 642.976562 403.589844 634.785156 401.359375 C 633.40625 400.980469 631.988281 401.109375 630.707031 401.589844 C 628.453125 400.832031 626.1875 400.113281 623.898438 399.453125 C 624.839844 394.898438 621.105469 389.523438 615.816406 391.398438 C 615.03125 391.675781 614.253906 391.984375 613.472656 392.277344 C 599.527344 381.351562 584.671875 371.585938 569.089844 363.152344 C 567.207031 362.132812 565.261719 362.074219 563.472656 362.738281 C 575.425781 327.476562 586.710938 291.976562 594.855469 255.617188 C 595.558594 252.484375 594.328125 250.082031 592.378906 248.699219 C 594.050781 247.621094 595.519531 246.261719 596.75 244.625 C 596.773438 244.605469 596.792969 244.585938 596.816406 244.566406 C 596.8125 244.5625 596.808594 244.5625 596.804688 244.558594 C 596.941406 244.375 597.105469 244.21875 597.234375 244.027344 C 597.980469 242.941406 597.542969 241.320312 596.546875 240.578125 C 595.75 239.980469 594.871094 239.925781 594.050781 240.226562 C 594.054688 240.222656 594.054688 240.21875 594.058594 240.214844 C 594.628906 238.890625 594.449219 237.351562 593.101562 236.558594 C 591.863281 235.839844 590.15625 236.257812 589.445312 237.519531 C 589.429688 237.546875 589.417969 237.574219 589.402344 237.597656 C 589.390625 237.609375 589.375 237.613281 589.363281 237.625 C 589.222656 237.804688 589.09375 237.996094 588.953125 238.175781 C 588.953125 238.171875 588.949219 238.171875 588.945312 238.167969 C 588.933594 238.191406 588.917969 238.21875 588.90625 238.238281 C 587.304688 240.3125 585.867188 242.5 584.605469 244.777344 C 582.15625 242.417969 578.082031 241.75 575.304688 244.691406 C 570.226562 250.070312 565.042969 255.34375 559.792969 260.558594 C 559.359375 260.597656 558.910156 260.675781 558.445312 260.804688 C 533.042969 267.882812 510.246094 282.183594 492.65625 301.566406 C 488.078125 305.433594 483.675781 309.5 479.375 313.675781 C 478.070312 309.015625 476.765625 304.351562 475.464844 299.6875 C 468.328125 274.195312 461.195312 248.699219 454.0625 223.203125 C 453.691406 221.878906 453.054688 220.863281 452.257812 220.113281 C 452.402344 219.542969 452.394531 218.914062 452.074219 218.253906 C 448.414062 210.699219 445.453125 202.867188 443.183594 194.824219 C 442.382812 188.285156 441.359375 181.773438 440.078125 175.300781 C 439.585938 172.804688 435.332031 172.699219 434.925781 175.300781 C 434.628906 177.1875 434.484375 179.058594 434.4375 180.90625 C 433.925781 180.683594 433.394531 180.507812 432.851562 180.40625 C 429.753906 178.039062 424.5625 178.003906 422.792969 182.054688 C 418.164062 192.652344 414.535156 203.535156 411.492188 214.589844 C 411.03125 214.773438 410.601562 215.035156 410.289062 215.464844 C 399.847656 229.859375 392.683594 246.152344 385.636719 262.382812 C 384.742188 264.445312 386.742188 267.582031 389.082031 266.144531 C 385.796875 270.726562 382.515625 275.3125 379.230469 279.894531 C 376.878906 283.179688 374.523438 286.464844 372.171875 289.746094 C 370.074219 291.953125 368.039062 294.210938 365.992188 296.457031 C 362.753906 293.46875 359.46875 290.539062 356.164062 287.628906 C 356.378906 287.4375 356.59375 287.25 356.808594 287.058594 C 361.8125 282.621094 356.539062 273.957031 350.308594 275.894531 C 348.394531 276.488281 346.484375 277.085938 344.574219 277.683594 C 340.101562 273.941406 335.582031 270.257812 330.996094 266.652344 C 327.609375 263.226562 324.21875 259.800781 320.828125 256.375 C 319.824219 255.363281 318.578125 255.097656 317.414062 255.320312 C 316.929688 254.59375 316.285156 253.917969 315.421875 253.34375 C 311.375 250.660156 307.386719 247.902344 303.449219 245.082031 C 298.703125 241.316406 294.257812 237.179688 290.175781 232.597656 C 288.648438 230.886719 286.804688 230.34375 285.050781 230.570312 C 279.453125 225.847656 273.804688 221.191406 268.054688 216.648438 C 266.191406 215.175781 263.882812 214.472656 261.738281 214.9375 C 260.078125 213.316406 257.375 212.730469 255.257812 213.878906 C 255.179688 213.757812 255.097656 213.640625 255.015625 213.519531 C 254.972656 211.558594 254.929688 209.59375 254.886719 207.628906 C 254.78125 202.695312 249.261719 200.980469 245.765625 203.851562 C 245.574219 203.996094 245.351562 204.050781 245.097656 204.019531 C 240.125 204.296875 238.5 209.515625 241.320312 213.140625 C 242.347656 214.464844 243.378906 215.789062 244.40625 217.113281 C 244.449219 219.101562 244.492188 221.09375 244.535156 223.085938 C 244.597656 225.863281 246.765625 228.210938 249.546875 228.394531 C 248.589844 231.789062 247.632812 235.1875 246.675781 238.582031 C 245.835938 241.554688 247.324219 243.703125 249.480469 244.601562 C 249.304688 245.074219 249.105469 245.535156 248.929688 246.007812 C 247.800781 249.089844 250.058594 251.734375 252.789062 252.484375 C 252.941406 253.773438 253.683594 254.910156 254.722656 255.730469 C 254.042969 257.058594 253.339844 258.371094 252.710938 259.734375 C 251.3125 262.777344 252.859375 266.019531 255.28125 267.300781 C 253.632812 270.023438 251.980469 272.75 250.332031 275.476562 C 248.246094 278.925781 250.691406 282.464844 253.832031 283.273438 C 253.773438 283.386719 253.703125 283.496094 253.644531 283.609375 C 250.804688 288.828125 257.703125 294.5625 262.035156 290.085938 C 262.105469 290.015625 262.175781 289.941406 262.246094 289.867188 C 260.921875 292.121094 259.597656 294.371094 258.273438 296.625 C 256.015625 300.472656 259.5625 304.800781 263.214844 304.753906 C 261.261719 307.957031 263.46875 311.375 266.410156 312.382812 C 266.644531 314.546875 266.976562 316.695312 267.40625 318.828125 L 265.515625 321.875 C 263.230469 325.558594 266.515625 329.679688 270.054688 329.945312 C 268.984375 332.402344 270.339844 334.855469 272.417969 336.140625 C 272.480469 336.320312 272.546875 336.496094 272.609375 336.675781 C 272.839844 337.878906 273.066406 339.085938 273.300781 340.285156 C 272.246094 341.738281 271.191406 343.191406 270.140625 344.648438 C 267.835938 347.832031 270.386719 351.578125 273.609375 352.453125 C 264.355469 352.304688 255.109375 352.300781 245.859375 352.4375 C 208.207031 350.152344 170.480469 349.367188 132.769531 350.113281 C 129.171875 350.394531 126.089844 352.984375 126.089844 356.792969 C 126.089844 360.296875 129.046875 363.414062 132.585938 363.453125 C 132.734375 363.816406 132.875 364.210938 132.914062 364.355469 C 133.460938 366.277344 133.519531 368.238281 133.324219 370.5625 C 132.945312 375.089844 137.878906 377.902344 141.777344 377.003906 C 147.210938 375.746094 152.644531 374.492188 158.078125 373.234375 C 157.914062 374.253906 157.796875 375.277344 157.671875 376.304688 C 157.152344 376.027344 156.636719 375.746094 156.117188 375.46875 C 149.730469 372.03125 142.027344 380.816406 148.023438 385.957031 C 160.0625 396.277344 174.085938 403.886719 189.089844 408.363281 C 191.660156 409.746094 194.230469 411.125 196.800781 412.507812 C 197.773438 413.257812 198.75 414 199.738281 414.71875 C 214.1875 429.222656 229.421875 442.878906 246.15625 454.605469 C 245.199219 467.226562 244.242188 479.847656 243.28125 492.46875 C 225.132812 517.285156 212.726562 546.25 207.308594 576.511719 C 207.03125 578.066406 207.15625 579.621094 207.71875 580.988281 C 207.839844 583.023438 208.789062 584.90625 210.84375 586.109375 C 213.660156 587.757812 218.546875 587.042969 219.980469 583.710938 C 220.804688 581.804688 221.652344 579.914062 222.484375 578.015625 C 224.074219 576.035156 225.671875 574.058594 227.273438 572.082031 C 229.597656 574.105469 233.253906 574.71875 236.375 572.125 C 264.753906 548.542969 294.214844 526.304688 324.65625 505.449219 C 327.460938 503.527344 328.113281 500.582031 327.433594 498.019531 C 328.652344 497.15625 329.839844 496.234375 331.039062 495.332031 C 333.71875 508.484375 337.761719 521.289062 344.390625 532.523438 C 346.613281 541.835938 348.804688 551.15625 350.972656 560.484375 C 350.265625 561.484375 349.835938 562.785156 349.84375 564.394531 C 349.871094 569.523438 350.289062 574.589844 351.015625 579.589844 C 352.179688 594.632812 353.34375 609.671875 354.503906 624.714844 C 354.898438 629.820312 360.234375 632.382812 364.070312 630.773438 C 363.917969 631.921875 363.726562 633.070312 363.484375 634.210938 C 363.273438 635.203125 364.261719 636.023438 365.089844 635.894531 C 364.984375 636.417969 364.875 636.941406 364.765625 637.464844 C 364.765625 637.472656 364.769531 637.480469 364.769531 637.488281 C 364.765625 637.492188 364.761719 637.5 364.761719 637.507812 C 364.144531 638.8125 364.394531 640.390625 365.71875 641.164062 C 366.882812 641.84375 368.757812 641.515625 369.375 640.203125 C 371.625 635.433594 373.4375 630.476562 374.777344 625.375 C 375.648438 624.863281 376.445312 624.152344 377.0625 623.179688 C 379 622.640625 380.710938 621.261719 381.496094 618.816406 C 382.648438 615.199219 383.933594 611.644531 385.324219 608.136719 C 391.074219 601.222656 395.800781 593.5 399.335938 585.226562 C 400.6875 584.75 401.894531 583.914062 402.675781 582.648438 C 416.761719 559.761719 427.90625 535.085938 435.839844 509.414062 C 447.554688 523.535156 461.511719 535.535156 477.328125 544.890625 C 476.34375 544.8125 475.472656 545.898438 476.042969 546.878906 C 482.828125 558.550781 494.09375 567.265625 507.09375 570.910156 C 507.640625 571.0625 508.113281 570.847656 508.417969 570.484375 C 511.546875 573.953125 514.722656 577.375 517.964844 580.742188 C 518.996094 581.8125 520.367188 582.410156 521.792969 582.582031 C 523.613281 584.519531 525.78125 586.117188 528.175781 587.398438 C 530.269531 589.980469 532.464844 592.484375 534.855469 594.8125 C 535.746094 595.679688 537.019531 594.980469 537.136719 593.867188 C 537.136719 593.855469 537.136719 593.847656 537.136719 593.835938 C 538.328125 594.070312 539.554688 593.996094 540.675781 593.609375 L 541.078125 594.070312 C 541.390625 594.425781 541.78125 594.527344 542.15625 594.457031 C 542.40625 595.132812 542.660156 595.8125 542.910156 596.488281 C 543.515625 598.074219 546.09375 597.398438 545.488281 595.777344 C 544.878906 594.191406 544.324219 592.582031 543.800781 590.96875 C 544.09375 590.445312 544.34375 589.875 544.507812 589.203125 C 546.207031 582.257812 545.878906 575.058594 543.582031 568.433594 C 543.339844 565.261719 543.066406 562.097656 542.777344 558.933594 C 546.121094 554.265625 544.585938 548.148438 544.089844 542.765625 C 543.746094 539.035156 543.402344 535.304688 543.0625 531.578125 C 543.292969 531.191406 543.460938 530.738281 543.453125 530.140625 C 543.210938 513.613281 541.59375 497.15625 538.789062 480.878906 C 538.570312 477.097656 538.347656 473.316406 538.195312 469.535156 C 538.136719 468.140625 537.234375 467.335938 536.191406 467.074219 C 536.140625 464.144531 536.074219 461.214844 536.050781 458.28125 C 536.046875 457.714844 536.046875 457.148438 536.046875 456.582031 C 540.496094 454.910156 545.152344 453.824219 549.921875 453.472656 C 551.625 453.347656 551.648438 450.703125 549.921875 450.800781 C 549.15625 450.84375 548.394531 450.929688 547.632812 451 C 547.730469 450.960938 547.832031 450.933594 547.929688 450.898438 C 554.09375 450.539062 560.234375 449.777344 566.328125 448.625 C 567.296875 448.441406 567.84375 447.753906 568.074219 446.949219 C 569.789062 445.867188 571.496094 444.777344 573.1875 443.667969 C 574.914062 446.304688 578.265625 447.84375 581.878906 445.808594 C 582.015625 445.734375 582.152344 445.660156 582.289062 445.585938 C 583.652344 446.492188 585.441406 446.890625 587.5625 446.402344 C 595.394531 444.617188 603.035156 442.0625 610.398438 438.867188 C 614.414062 437.59375 618.425781 436.324219 622.457031 435.101562 C 625.375 435.457031 628.296875 435.75 631.222656 436.054688 C 635.835938 436.933594 640.453125 437.8125 645.066406 438.6875 C 648.15625 439.277344 650.820312 437.929688 652.277344 435.8125 C 653.574219 435.296875 654.835938 434.65625 656.003906 433.722656 C 656.539062 433.300781 657.015625 432.808594 657.476562 432.304688 C 658.53125 432.277344 659.59375 432.027344 660.574219 431.453125 C 663.601562 429.671875 664.894531 425.371094 662.960938 422.3125 Z M 210.535156 368.0625 C 213.71875 367.90625 216.902344 367.746094 220.085938 367.589844 C 216.523438 369.019531 213.058594 370.628906 209.675781 372.390625 C 210.015625 370.96875 210.308594 369.527344 210.535156 368.0625 Z M 220.507812 397.933594 C 220.429688 398.019531 220.382812 398.113281 220.3125 398.203125 C 219.816406 397.859375 219.316406 397.527344 218.820312 397.183594 C 219.457031 396.523438 220.105469 395.875 220.757812 395.234375 C 221.113281 395.582031 221.492188 395.910156 221.882812 396.21875 C 221.90625 396.257812 221.933594 396.296875 221.960938 396.332031 C 221.480469 396.867188 221.003906 397.410156 220.507812 397.933594 Z M 229.730469 407.777344 C 228.230469 409.644531 227.539062 411.980469 228.03125 414.148438 C 226.679688 413.421875 225.332031 412.695312 223.980469 411.96875 C 224.964844 411.328125 225.710938 410.429688 226.199219 409.398438 C 227.480469 409.230469 228.777344 408.613281 229.953125 407.378906 C 230.097656 407.210938 230.25 407.050781 230.402344 406.890625 C 230.414062 406.90625 230.425781 406.921875 230.4375 406.9375 C 230.199219 407.214844 229.960938 407.492188 229.730469 407.777344 Z M 283.167969 347.976562 C 285.121094 346.46875 286.988281 344.875 288.789062 343.210938 L 283.25 349.667969 C 283.207031 349.105469 283.203125 348.539062 283.167969 347.976562 Z M 284.972656 397.753906 C 284.8125 397.640625 284.648438 397.523438 284.488281 397.40625 C 284.503906 396.609375 284.539062 395.808594 284.550781 395.011719 C 286.148438 393.257812 287.757812 391.511719 289.304688 389.710938 C 287.8125 392.367188 286.398438 395.0625 284.972656 397.753906 Z M 394.347656 332.796875 C 394.0625 334.085938 393.738281 335.371094 393.464844 336.664062 C 393.097656 336.261719 392.65625 335.914062 392.191406 335.59375 C 392.910156 334.660156 393.632812 333.734375 394.347656 332.796875 Z M 391.5 492.132812 C 390.800781 493.519531 390.121094 494.921875 389.421875 496.308594 C 389.617188 493.550781 389.769531 490.789062 389.925781 488.03125 C 392.84375 484.8125 395.714844 481.554688 398.574219 478.289062 C 396.222656 482.902344 393.835938 487.503906 391.5 492.132812 Z M 390.769531 466.980469 C 390.855469 466.089844 390.941406 465.199219 391.03125 464.308594 C 391.5625 463.453125 392.128906 462.621094 392.664062 461.773438 C 396.847656 460.136719 399.972656 456.183594 402.261719 451.789062 C 402.617188 451.886719 402.972656 451.980469 403.332031 452.082031 C 399.203125 457.097656 395.035156 462.078125 390.769531 466.980469 Z M 436.957031 451.894531 C 437.71875 449.386719 438.480469 446.875 439.242188 444.367188 C 439.445312 445.84375 439.667969 447.316406 439.910156 448.78125 C 438.945312 449.839844 437.960938 450.875 436.957031 451.894531 Z M 442.207031 474.265625 C 442.53125 473.703125 442.851562 473.144531 443.179688 472.582031 C 444.964844 475.445312 446.78125 478.289062 448.648438 481.101562 C 446.5 478.824219 444.355469 476.546875 442.207031 474.265625 Z M 488.390625 447.625 C 487.839844 451.269531 487.34375 454.925781 486.90625 458.589844 C 486.164062 457.394531 485.410156 456.207031 484.667969 455.011719 C 485.945312 452.511719 487.132812 449.96875 488.261719 447.40625 C 488.308594 447.476562 488.34375 447.554688 488.390625 447.625 Z M 479.472656 352.691406 C 480.152344 352.070312 480.84375 351.457031 481.527344 350.835938 C 483.699219 349.917969 485.839844 348.933594 487.980469 347.949219 C 486.273438 349.738281 484.535156 351.492188 482.839844 353.292969 C 481.734375 354.464844 480.59375 355.628906 479.453125 356.796875 C 479.457031 355.425781 479.464844 354.058594 479.472656 352.691406 Z M 481.449219 550.183594 L 482.050781 550.527344 C 482.101562 550.699219 482.195312 550.871094 482.332031 551.03125 C 485.09375 554.300781 488.109375 557.328125 491.328125 560.125 C 487.59375 557.300781 484.265625 553.953125 481.449219 550.183594 Z M 497.898438 561.984375 C 499.253906 562.492188 500.648438 562.894531 502.054688 563.242188 C 503.097656 564.441406 504.144531 565.632812 505.195312 566.820312 C 502.671875 565.335938 500.238281 563.722656 497.898438 561.984375 Z M 541.738281 385.035156 C 541.558594 385.238281 541.375 385.417969 541.210938 385.644531 C 540.386719 386.792969 539.5625 387.9375 538.738281 389.085938 C 538.730469 388.832031 538.742188 388.566406 538.703125 388.324219 C 539.4375 386.316406 540.140625 384.296875 540.863281 382.285156 C 541.371094 382.570312 541.878906 382.859375 542.386719 383.148438 C 542.167969 383.777344 541.953125 384.410156 541.738281 385.035156 Z M 541.738281 385.035156 " fill-opacity="1" fill-rule="nonzero"/><path fill="#161616" d="M 694.484375 423.964844 C 655.664062 399.941406 615.488281 378.160156 574.203125 358.6875 C 584.808594 313.125 597.496094 268.058594 612.265625 223.667969 C 614.054688 218.289062 607.234375 212.890625 602.453125 216.125 C 563.328125 242.566406 524.59375 269.578125 486.230469 297.117188 C 472.394531 250.503906 458.554688 203.890625 444.714844 157.273438 C 442.277344 149.054688 429.378906 152.554688 431.835938 160.824219 C 431.835938 160.828125 431.839844 160.828125 431.839844 160.835938 C 409.726562 200.835938 387.613281 240.835938 365.5 280.839844 C 334.738281 252.632812 301.851562 226.734375 267.152344 203.546875 C 256.726562 196.582031 246.132812 189.863281 235.398438 183.386719 C 230.214844 180.257812 224.324219 185.40625 225.585938 190.925781 C 237.222656 241.808594 248.859375 292.691406 260.496094 343.574219 C 213.03125 341.527344 165.542969 340.179688 118.042969 339.585938 C 113.246094 339.527344 109.359375 345.410156 112.277344 349.636719 C 124.578125 367.476562 141.707031 381.011719 157.96875 395.039062 L 211.386719 441.125 C 220.472656 448.964844 229.558594 456.804688 238.644531 464.640625 C 223.917969 510.519531 209.195312 556.398438 194.464844 602.277344 C 193.570312 605.074219 195.0625 608.371094 197.535156 609.820312 C 200.28125 611.425781 203.292969 610.660156 205.628906 608.773438 C 246.207031 576.027344 286.789062 543.285156 327.363281 510.539062 C 338.863281 558.320312 349.0625 606.410156 357.84375 654.765625 C 358.933594 660.757812 367.203125 660.824219 370.050781 656.359375 C 396.492188 614.925781 420.316406 571.863281 441.4375 527.484375 C 474.414062 560.640625 510.898438 590.269531 550.148438 615.703125 C 554.207031 618.328125 560.597656 614.9375 560.199219 609.933594 C 556.214844 560.257812 552.234375 510.585938 548.25 460.90625 C 595.074219 448.648438 642.871094 440.378906 691.113281 436.402344 C 697.5625 435.878906 700.390625 427.621094 694.484375 423.964844 Z M 444.226562 511.355469 C 441.453125 508.480469 435.566406 508.792969 433.738281 512.707031 C 414.117188 554.738281 392.039062 595.585938 367.65625 635.035156 C 358.953125 588.757812 349.066406 542.703125 337.867188 496.960938 C 336.570312 491.652344 330.402344 491.03125 326.703125 494.011719 C 289.15625 524.3125 251.609375 554.609375 214.0625 584.90625 C 226.972656 544.695312 239.878906 504.484375 252.789062 464.269531 C 253.46875 462.152344 252.78125 459.246094 251.070312 457.769531 C 216.378906 427.839844 181.152344 398.421875 146.996094 367.882812 C 141.78125 363.21875 136.664062 358.390625 131.984375 353.179688 C 177.65625 353.886719 223.316406 355.230469 268.953125 357.28125 C 273.46875 357.484375 276.316406 352.867188 275.390625 348.828125 L 242.089844 203.214844 C 274.464844 223.613281 305.382812 246.28125 334.492188 271.128906 C 344.027344 279.273438 353.367188 287.644531 362.519531 296.21875 C 365.578125 299.082031 370.867188 298.742188 373.007812 294.867188 C 394.394531 256.175781 415.785156 217.488281 437.171875 178.796875 C 450.128906 222.449219 463.089844 266.097656 476.046875 309.75 C 477.175781 313.546875 482.242188 316.347656 485.859375 313.742188 C 521.382812 288.148438 557.257812 263.050781 593.441406 238.398438 C 580.613281 278.648438 569.464844 319.421875 560.039062 360.609375 C 559.429688 363.277344 560.390625 366.882812 563.109375 368.152344 C 599.828125 385.289062 635.65625 404.28125 670.460938 425.019531 C 626.21875 429.738281 582.367188 437.851562 539.390625 449.398438 C 536.75 450.105469 534.257812 452.960938 534.488281 455.835938 L 545.785156 596.75 C 509.085938 571.867188 475.046875 543.257812 444.226562 511.355469 Z M 444.226562 511.355469 " fill-opacity="1" fill-rule="nonzero"/><path fill="#000000" d="M 340.378906 385.277344 C 339.953125 382.113281 339.289062 378.574219 337.488281 375.875 C 335.839844 373.390625 333.324219 371.835938 330.292969 371.8125 C 326.824219 371.78125 324.527344 374.175781 322.699219 376.785156 C 319.171875 381.804688 317.339844 388.203125 317.332031 394.3125 C 317.324219 398.253906 317.890625 402.761719 320.925781 405.609375 C 320.960938 405.648438 321.011719 405.667969 321.050781 405.703125 C 321.191406 405.878906 321.292969 406.074219 321.449219 406.238281 C 323.65625 408.597656 327.203125 409.554688 330.296875 408.628906 C 331.699219 408.210938 332.90625 407.507812 333.972656 406.636719 C 334.574219 406.242188 335.144531 405.796875 335.664062 405.277344 C 338.128906 402.808594 339.375 398.941406 340.019531 395.582031 C 340.679688 392.125 340.847656 388.753906 340.378906 385.277344 Z M 340.378906 385.277344 " fill-opacity="1" fill-rule="nonzero"/><path fill="#000000" d="M 445.972656 398.058594 C 438.234375 413.339844 420.351562 416.941406 404.640625 416.453125 C 389.890625 415.996094 371.101562 411.367188 367.945312 394.480469 C 367.285156 390.929688 363 388.914062 359.730469 389.8125 C 356.007812 390.835938 354.402344 394.46875 355.0625 398.03125 C 359.265625 420.523438 383.308594 428.898438 403.421875 429.765625 C 424.015625 430.648438 447.457031 424.644531 457.503906 404.800781 C 461.378906 397.148438 449.859375 390.378906 445.972656 398.058594 Z M 445.972656 398.058594 " fill-opacity="1" fill-rule="nonzero"/><path fill="#000000" d="M 494.859375 402.949219 C 495.773438 398.894531 496.417969 394.082031 495.410156 389.964844 C 494.679688 386.988281 492.433594 384.457031 489.496094 383.515625 C 486.933594 382.007812 483.292969 381.921875 481.226562 384.367188 C 480.792969 384.882812 480.398438 385.433594 479.992188 385.976562 C 479.261719 386.492188 478.566406 387.0625 477.972656 387.738281 C 475.277344 390.796875 473.675781 394.902344 472.980469 398.894531 C 472.332031 402.605469 471.929688 406.699219 473.320312 410.300781 C 473.453125 410.636719 473.609375 410.941406 473.753906 411.257812 C 473.964844 412.425781 474.246094 413.582031 474.632812 414.722656 C 475.75 418.027344 479.28125 420.542969 482.847656 419.390625 C 483.949219 419.035156 484.957031 418.375 485.78125 417.542969 C 489.792969 416.414062 492.457031 412.597656 493.316406 408.65625 C 493.4375 408.121094 493.507812 407.558594 493.601562 407.011719 C 493.972656 406.1875 494.257812 405.328125 494.472656 404.445312 C 494.613281 403.949219 494.746094 403.453125 494.859375 402.949219 Z M 494.859375 402.949219 " fill-opacity="1" fill-rule="nonzero"/></svg>