<svg xmlns="http://www.w3.org/2000/svg" xmlns:xlink="http://www.w3.org/1999/xlink" width="1080" zoomAndPan="magnify" viewBox="0 0 810 809.999993" height="1080" preserveAspectRatio="xMidYMid meet" version="1.0"><path fill="#f29f58" d="M 397.050781 619.691406 C 391.515625 619.691406 385.601562 619.101562 379.097656 617.910156 C 365.648438 615.457031 353.761719 611.335938 343.769531 605.65625 C 330.246094 597.972656 322.007812 588.253906 319.277344 576.761719 C 319.132812 576.148438 318.34375 576.003906 317.960938 576.015625 C 317.5625 576.019531 317.0625 576.140625 316.964844 576.65625 C 316.941406 576.777344 313.871094 589.191406 304.003906 595.984375 C 289.691406 604.902344 268.945312 602.25 260.679688 600.703125 C 247.566406 598.246094 235.242188 593.757812 224.054688 587.367188 C 214.019531 581.632812 201.660156 573.398438 195.101562 560.527344 C 187.507812 545.625 191.144531 528.433594 194.539062 516.796875 C 194.691406 516.277344 194.34375 515.792969 194 515.53125 C 193.757812 515.351562 193.273438 515.089844 192.800781 515.394531 C 170.828125 529.375 141.757812 528.984375 122.089844 514.441406 C 112.628906 507.445312 106.464844 497.414062 104.738281 486.199219 C 103.148438 475.902344 104.992188 464.488281 109.792969 454.878906 C 115.734375 443 125.230469 435.136719 136.539062 432.738281 C 136.925781 432.660156 137.292969 432.519531 137.238281 431.808594 C 137.195312 431.269531 136.804688 430.398438 135.9375 430.351562 C 116.992188 429.339844 100.019531 415.046875 93.699219 394.785156 C 87.804688 375.882812 92.054688 353.863281 104.53125 338.6875 C 111.554688 330.144531 120.941406 323.878906 131.675781 320.5625 C 132.203125 320.402344 132.628906 319.582031 132.574219 318.847656 C 132.53125 318.296875 132.304688 318.265625 132.042969 318.226562 C 108.175781 314.710938 97.296875 288.792969 99.179688 266.1875 C 100.101562 255.152344 104.632812 244.699219 113.039062 234.226562 C 121.585938 223.574219 131.398438 215.828125 142.199219 211.203125 C 155.972656 205.304688 171.929688 204.296875 189.625 208.207031 C 190.136719 208.320312 190.539062 208.242188 190.824219 207.96875 C 191.167969 207.644531 191.3125 207.082031 191.207031 206.472656 C 187.90625 186.699219 195.511719 165.640625 211.058594 151.507812 C 226.25 137.695312 247.703125 133.640625 268.449219 140.652344 C 279.492188 144.386719 289.277344 151.109375 296.753906 160.09375 C 296.882812 160.25 297.074219 160.4375 297.253906 160.445312 C 297.441406 160.414062 297.722656 160.332031 298.003906 160.050781 L 298.339844 159.710938 L 298.773438 159.523438 C 299.453125 159.226562 299.722656 158.734375 299.570312 158.058594 C 296.3125 143.335938 303.777344 129.390625 308.515625 122.390625 C 315.136719 112.609375 325.417969 104.292969 338.253906 98.34375 C 350.558594 92.636719 363.847656 90.355469 376.667969 91.742188 C 388.640625 93.039062 398.839844 97.140625 405.386719 103.289062 C 412.386719 109.863281 416.195312 119.304688 417.367188 133.003906 C 417.464844 134.164062 418.546875 134.28125 418.875 134.292969 L 419.273438 134.300781 L 419.648438 134.4375 C 420.070312 134.585938 420.519531 134.585938 420.832031 134.429688 C 420.976562 134.355469 421.1875 134.199219 421.320312 133.738281 C 426.414062 116.050781 441.667969 102.492188 460.171875 99.199219 C 477.570312 96.109375 496.945312 104.535156 507.277344 119.714844 C 513.144531 128.332031 515.765625 138.359375 514.855469 148.710938 C 514.804688 149.269531 515.425781 149.511719 515.695312 149.589844 C 516.0625 149.695312 516.835938 149.757812 517.097656 149.238281 C 527.144531 129.523438 547.113281 117.53125 569.222656 118.128906 C 580.058594 118.386719 589.695312 121.5625 597.09375 127.316406 C 604.511719 133.082031 610.003906 141.058594 612.5625 149.773438 C 615.660156 160.328125 613.878906 170.765625 607.542969 179.164062 C 607.429688 179.3125 607.222656 179.589844 607.71875 180.136719 C 608.140625 180.601562 608.886719 180.917969 609.34375 180.640625 C 627.800781 169.3125 654.296875 172.652344 672.34375 188.585938 C 681.367188 196.554688 687.199219 206.878906 689.210938 218.4375 C 691.734375 232.921875 687.757812 246.472656 683.976562 255.289062 C 678.152344 268.875 668.644531 281.136719 657.207031 289.816406 C 656.449219 290.394531 656.480469 291.425781 656.742188 291.9375 C 656.855469 292.160156 657.015625 292.5 657.859375 292.25 C 676.855469 286.5625 700.199219 296.167969 712.148438 314.59375 C 725.613281 335.355469 716.800781 359.402344 702.097656 374.027344 C 692.476562 383.597656 680.53125 389.945312 667.550781 392.382812 C 667.203125 392.445312 667.035156 392.78125 666.953125 393.050781 C 666.804688 393.546875 666.898438 394.097656 667.167969 394.355469 C 685.832031 412.210938 694.175781 441.238281 687.933594 466.59375 C 681.746094 491.730469 658.21875 513.847656 630.714844 520.386719 C 615.234375 524.070312 599.792969 521.152344 587.226562 512.191406 C 587.066406 512.070312 586.835938 511.914062 586.386719 512.207031 C 585.859375 512.5625 585.511719 513.292969 585.628906 513.800781 C 591.261719 537.964844 585.136719 560.492188 569.246094 574.054688 C 560.113281 581.847656 548.496094 585.492188 537.296875 588.261719 C 524.011719 591.550781 512.582031 592.316406 502.359375 590.613281 C 488.851562 588.363281 476.824219 581.417969 467.574219 570.527344 C 467.457031 570.390625 467.25 570.136719 466.683594 570.335938 C 466.089844 570.542969 465.617188 571.105469 465.605469 571.609375 C 465.574219 572.875 465.433594 574.191406 465.183594 575.644531 L 464.972656 576.882812 L 463.84375 577.441406 C 463.414062 577.648438 463.058594 578.0625 462.976562 578.4375 C 462.9375 578.613281 462.953125 578.78125 463.148438 579.019531 L 464.0625 580.140625 L 463.53125 581.484375 C 460.769531 588.5 455.332031 595.214844 447.371094 601.449219 C 437.355469 609.296875 425.207031 615.023438 412.242188 618.019531 C 407.417969 619.132812 402.414062 619.691406 397.050781 619.691406 Z M 397.050781 619.691406 C 391.515625 619.691406 385.601562 619.101562 379.097656 617.910156 C 365.648438 615.457031 353.761719 611.335938 343.769531 605.65625 C 330.246094 597.972656 322.007812 588.253906 319.277344 576.761719 C 319.132812 576.148438 318.34375 576.003906 317.960938 576.015625 C 317.5625 576.019531 317.0625 576.140625 316.964844 576.65625 C 316.941406 576.777344 313.871094 589.191406 304.003906 595.984375 C 289.691406 604.902344 268.945312 602.25 260.679688 600.703125 C 247.566406 598.246094 235.242188 593.757812 224.054688 587.367188 C 214.019531 581.632812 201.660156 573.398438 195.101562 560.527344 C 187.507812 545.625 191.144531 528.433594 194.539062 516.796875 C 194.691406 516.277344 194.34375 515.792969 194 515.53125 C 193.757812 515.351562 193.273438 515.089844 192.800781 515.394531 C 170.828125 529.375 141.757812 528.984375 122.089844 514.441406 C 112.628906 507.445312 106.464844 497.414062 104.738281 486.199219 C 103.148438 475.902344 104.992188 464.488281 109.792969 454.878906 C 115.734375 443 125.230469 435.136719 136.539062 432.738281 C 136.925781 432.660156 137.292969 432.519531 137.238281 431.808594 C 137.195312 431.269531 136.804688 430.398438 135.9375 430.351562 C 116.992188 429.339844 100.019531 415.046875 93.699219 394.785156 C 87.804688 375.882812 92.054688 353.863281 104.53125 338.6875 C 111.554688 330.144531 120.941406 323.878906 131.675781 320.5625 C 132.203125 320.402344 132.628906 319.582031 132.574219 318.847656 C 132.53125 318.296875 132.304688 318.265625 132.042969 318.226562 C 108.175781 314.710938 97.296875 288.792969 99.179688 266.1875 C 100.101562 255.152344 104.632812 244.699219 113.039062 234.226562 C 121.585938 223.574219 131.398438 215.828125 142.199219 211.203125 C 155.972656 205.304688 171.929688 204.296875 189.625 208.207031 C 190.136719 208.320312 190.539062 208.242188 190.824219 207.96875 C 191.167969 207.644531 191.3125 207.082031 191.207031 206.472656 C 187.90625 186.699219 195.511719 165.640625 211.058594 151.507812 C 226.25 137.695312 247.703125 133.640625 268.449219 140.652344 C 279.492188 144.386719 289.277344 151.109375 296.753906 160.09375 C 296.882812 160.25 297.074219 160.4375 297.253906 160.445312 C 297.441406 160.414062 297.722656 160.332031 298.003906 160.050781 L 298.339844 159.710938 L 298.773438 159.523438 C 299.453125 159.226562 299.722656 158.734375 299.570312 158.058594 C 296.3125 143.335938 303.777344 129.390625 308.515625 122.390625 C 315.136719 112.609375 325.417969 104.292969 338.253906 98.34375 C 350.558594 92.636719 363.847656 90.355469 376.667969 91.742188 C 388.640625 93.039062 398.839844 97.140625 405.386719 103.289062 C 412.386719 109.863281 416.195312 119.304688 417.367188 133.003906 C 417.464844 134.164062 418.546875 134.28125 418.875 134.292969 L 419.273438 134.300781 L 419.648438 134.4375 C 420.070312 134.585938 420.519531 134.585938 420.832031 134.429688 C 420.976562 134.355469 421.1875 134.199219 421.320312 133.738281 C 426.414062 116.050781 441.667969 102.492188 460.171875 99.199219 C 477.570312 96.109375 496.945312 104.535156 507.277344 119.714844 C 513.144531 128.332031 515.765625 138.359375 514.855469 148.710938 C 514.804688 149.269531 515.425781 149.511719 515.695312 149.589844 C 516.0625 149.695312 516.835938 149.757812 517.097656 149.238281 C 527.144531 129.523438 547.113281 117.53125 569.222656 118.128906 C 580.058594 118.386719 589.695312 121.5625 597.09375 127.316406 C 604.511719 133.082031 610.003906 141.058594 612.5625 149.773438 C 615.660156 160.328125 613.878906 170.765625 607.542969 179.164062 C 607.429688 179.3125 607.222656 179.589844 607.71875 180.136719 C 608.140625 180.601562 608.886719 180.917969 609.34375 180.640625 C 627.800781 169.3125 654.296875 172.652344 672.34375 188.585938 C 681.367188 196.554688 687.199219 206.878906 689.210938 218.4375 C 691.734375 232.921875 687.757812 246.472656 683.976562 255.289062 C 678.152344 268.875 668.644531 281.136719 657.207031 289.816406 C 656.449219 290.394531 656.480469 291.425781 656.742188 291.9375 C 656.855469 292.160156 657.015625 292.5 657.859375 292.25 C 676.855469 286.5625 700.199219 296.167969 712.148438 314.59375 C 725.613281 335.355469 716.800781 359.402344 702.097656 374.027344 C 692.476562 383.597656 680.53125 389.945312 667.550781 392.382812 C 667.203125 392.445312 667.035156 392.78125 666.953125 393.050781 C 666.804688 393.546875 666.898438 394.097656 667.167969 394.355469 C 685.832031 412.210938 694.175781 441.238281 687.933594 466.59375 C 681.746094 491.730469 658.21875 513.847656 630.714844 520.386719 C 615.234375 524.070312 599.792969 521.152344 587.226562 512.191406 C 587.066406 512.070312 586.835938 511.914062 586.386719 512.207031 C 585.859375 512.5625 585.511719 513.292969 585.628906 513.800781 C 591.261719 537.964844 585.136719 560.492188 569.246094 574.054688 C 560.113281 581.847656 548.496094 585.492188 537.296875 588.261719 C 524.011719 591.550781 512.582031 592.316406 502.359375 590.613281 C 488.851562 588.363281 476.824219 581.417969 467.574219 570.527344 C 467.457031 570.390625 467.25 570.136719 466.683594 570.335938 C 466.089844 570.542969 465.617188 571.105469 465.605469 571.609375 C 465.574219 572.875 465.433594 574.191406 465.183594 575.644531 L 464.972656 576.882812 L 463.84375 577.441406 C 463.414062 577.648438 463.058594 578.0625 462.976562 578.4375 C 462.9375 578.613281 462.953125 578.78125 463.148438 579.019531 L 464.0625 580.140625 L 463.53125 581.484375 C 460.769531 588.5 455.332031 595.214844 447.371094 601.449219 C 437.355469 609.296875 425.207031 615.023438 412.242188 618.019531 C 407.417969 619.132812 402.414062 619.691406 397.050781 619.691406 Z M 397.050781 619.691406 " fill-opacity="1" fill-rule="nonzero"/><path fill="#f4f4f4" d="M 450.664062 398.484375 C 421.851562 437.082031 319.777344 425.019531 314.953125 362.78125 C 310.128906 300.539062 366.335938 278.234375 381.109375 276.417969 C 482.964844 263.871094 479.480469 359.886719 450.664062 398.484375 Z M 354.675781 452.359375 C 347.304688 446.234375 343.777344 457.1875 343.777344 457.1875 C 343.777344 457.1875 340.027344 445.363281 332.882812 457.1875 C 325.738281 469.007812 331.328125 477.085938 336.664062 478.410156 C 357.414062 483.550781 362.046875 458.488281 354.675781 452.359375 Z M 443.617188 473.589844 C 450.390625 468.378906 454.875 466.160156 453.585938 459.421875 C 452.300781 452.683594 442.972656 435.375 437.503906 453.839844 C 430.105469 450.429688 426.378906 453.277344 425.996094 462.011719 C 425.613281 470.746094 439.433594 476.808594 443.617188 473.589844 Z M 443.617188 473.589844 " fill-opacity="1" fill-rule="nonzero"/><path fill="#161616" d="M 257.378906 725.246094 C 272.496094 701.890625 312.828125 713.914062 310.773438 719.09375 C 308.84375 723.957031 257.398438 731.894531 257.378906 725.246094 Z M 531.105469 720.386719 C 531.105469 720.386719 518.558594 694.8125 470.632812 725.246094 C 476.101562 728.019531 528.210938 726.265625 531.105469 720.386719 Z M 531.105469 720.386719 " fill-opacity="1" fill-rule="nonzero"/><path fill="#161616" d="M 718.132812 314.96875 C 712.652344 305.121094 703.839844 297.023438 693.84375 291.894531 C 686.199219 287.972656 677.695312 285.664062 669.171875 285.675781 C 685.675781 269.058594 696.824219 245.664062 694.625 222.203125 C 692.191406 196.226562 671.953125 175.820312 646.785156 170.367188 C 636.894531 168.222656 626.574219 168.527344 617.078125 171.675781 C 622.300781 156.078125 615.851562 137.984375 603.804688 126.617188 C 587 110.769531 560.804688 109.710938 540.59375 119.394531 C 532.222656 123.40625 524.96875 129.414062 519.292969 136.6875 C 516.679688 121.308594 506.539062 107.675781 492.601562 100.160156 C 474.222656 90.25 452.128906 92.148438 435.578125 104.839844 C 429.386719 109.589844 424.328125 115.566406 420.699219 122.363281 C 419.128906 115.222656 416.417969 108.421875 411.601562 102.675781 C 404.527344 94.25 391.644531 88.578125 381.109375 86.464844 C 353.609375 80.960938 322.867188 91.484375 305.625 113.660156 C 298.195312 123.21875 294.128906 137.824219 293.925781 150.035156 C 279.800781 137.207031 259.980469 130.472656 241 132.703125 C 218.625 135.339844 199.917969 150.734375 191.101562 171.230469 C 186.832031 181.164062 185.011719 191.792969 185.851562 202.46875 C 172.175781 200.105469 155.664062 198.957031 142.449219 203.597656 C 129.535156 208.132812 118.304688 216.378906 109.417969 226.722656 C 100.886719 236.644531 96.625 248.988281 94.742188 262.109375 C 92.9375 274.664062 94.710938 287.703125 100.234375 299.15625 C 104.558594 308.113281 111.585938 315.71875 120.445312 319.882812 C 104.535156 328.042969 92.84375 342.738281 88.355469 360.445312 C 82.949219 381.761719 88.011719 405.316406 103.929688 420.980469 C 109.414062 426.378906 115.941406 430.398438 123.074219 432.796875 C 106.773438 442.644531 98.085938 463.726562 99.414062 482.488281 C 100.289062 494.890625 105.421875 506.105469 114.585938 514.574219 C 124.589844 523.816406 137.617188 528.882812 151.070312 530.191406 C 163.53125 531.402344 176.324219 529.113281 187.660156 523.78125 C 185.1875 535.105469 184.527344 547.03125 188.648438 557.980469 C 193.636719 571.234375 201.613281 581.621094 213.3125 589.0625 C 225.488281 596.808594 239.738281 603.027344 253.839844 606.113281 C 266.546875 608.890625 282.257812 608.632812 294.976562 605.265625 C 290.136719 612.390625 285.441406 619.597656 281.871094 627.464844 C 277.71875 636.609375 275.34375 646.296875 275.570312 656.382812 C 275.8125 667.265625 278.65625 677.90625 283.074219 687.808594 C 286.476562 695.425781 290.972656 702.519531 296.269531 708.953125 C 281.128906 707.429688 264.257812 707.804688 255.125 721.203125 C 252.453125 725.121094 252.667969 729.824219 257.398438 731.894531 C 259.636719 732.875 261.902344 732.636719 264.246094 732.265625 C 266.972656 731.835938 269.699219 731.394531 272.433594 730.996094 C 282.835938 729.488281 293.210938 727.886719 303.492188 725.667969 C 307.886719 724.71875 315.238281 724.421875 315.8125 718.671875 C 316.027344 716.507812 315.140625 714.222656 313.621094 712.664062 C 312.15625 711.160156 309.847656 710.859375 308.5 709.371094 C 307.574219 708.351562 306.488281 708.078125 305.480469 708.265625 C 293.003906 694.777344 284.121094 677.132812 283.058594 658.648438 C 281.953125 639.398438 291.480469 623.578125 301.929688 608.253906 C 303.945312 605.296875 305.960938 602.332031 307.941406 599.351562 C 312.214844 596.34375 315.742188 592.496094 318.234375 587.882812 C 328.480469 607.3125 353.082031 617.398438 373.453125 621.796875 C 385.367188 624.371094 397.75 625.6875 409.828125 623.535156 C 423.445312 621.105469 436.894531 615.226562 448.042969 607.058594 C 455.605469 601.519531 462.71875 594.453125 466.855469 586.019531 C 480.199219 599.535156 490.367188 616.121094 495.171875 634.605469 C 500.320312 654.417969 498.773438 675.945312 489.746094 694.433594 C 484.714844 704.738281 477.589844 713.710938 468.582031 720.816406 C 468.046875 721.238281 467.714844 721.710938 467.519531 722.195312 C 464.613281 723.027344 463.035156 727.25 466.425781 728.792969 C 475.652344 732.984375 485.347656 730.832031 495.019531 729.8125 C 505.609375 728.699219 516.144531 728.632812 526.753906 728.0625 C 530.722656 727.851562 535.289062 725.652344 535.355469 721.070312 C 535.417969 716.652344 529.921875 713.550781 526.675781 711.566406 C 518.363281 706.488281 509.238281 705.96875 499.9375 708.351562 C 495.480469 709.496094 491.121094 711.089844 486.835938 712.90625 C 496.398438 700.703125 502.457031 685.804688 504.589844 670.398438 C 507.695312 647.917969 502.390625 625.089844 491.101562 605.523438 C 486.875 598.195312 481.824219 591.355469 476.152344 585.078125 C 482.257812 589.414062 489.101562 592.660156 496.519531 594.449219 C 508.859375 597.425781 521.773438 596.621094 534.101562 594.046875 C 546.398438 591.476562 559.359375 587.671875 569.539062 580.0625 C 578.824219 573.117188 585.628906 563.636719 589.347656 552.660156 C 592.816406 542.410156 593.328125 531.457031 591.878906 520.792969 C 616.269531 533.261719 645.226562 524.605469 666.039062 507.671875 C 677.171875 498.609375 686.335938 487.332031 691.015625 473.640625 C 695.566406 460.316406 695.917969 445.703125 693.054688 431.984375 C 690.265625 418.621094 684.144531 405.886719 675.152344 395.597656 C 697.039062 389.25 718.1875 373.605469 723.902344 351.363281 C 726.890625 339.734375 723.980469 325.476562 718.132812 314.96875 Z M 291.089844 720.605469 C 285.941406 721.546875 280.773438 722.378906 275.59375 723.128906 C 273.199219 723.472656 270.804688 723.808594 268.414062 724.164062 C 266.246094 724.488281 263.648438 725.324219 261.460938 725.242188 C 261.785156 724.746094 262.097656 724.152344 262.367188 723.835938 C 263.515625 722.492188 264.867188 721.339844 266.347656 720.382812 C 269.699219 718.214844 273.496094 716.964844 277.402344 716.25 C 286.78125 714.535156 296.644531 716.257812 306.015625 717.519531 C 305.855469 717.558594 305.726562 717.59375 305.679688 717.605469 C 300.84375 718.726562 295.972656 719.707031 291.089844 720.605469 Z M 513.613281 714.402344 C 518.351562 714.996094 522.644531 717.445312 526.382812 720.308594 C 526.527344 720.414062 526.664062 720.535156 526.808594 720.644531 C 526.785156 720.65625 526.773438 720.65625 526.753906 720.667969 C 525.753906 720.40625 524.304688 720.6875 523.292969 720.699219 C 520.679688 720.730469 518.070312 720.800781 515.457031 720.90625 C 510.238281 721.117188 505.023438 721.46875 499.820312 721.945312 C 494.714844 722.410156 489.640625 723.09375 484.542969 723.632812 C 483.226562 723.773438 481.886719 723.890625 480.542969 723.957031 C 486.785156 720.894531 493.160156 718.039062 499.789062 716.074219 C 504.234375 714.757812 508.960938 713.824219 513.613281 714.402344 Z M 700.359375 372.28125 C 691.285156 381.308594 679.691406 387.59375 667.09375 389.957031 C 664.335938 390.476562 663.566406 394.324219 665.464844 396.140625 C 683.738281 413.621094 691.578125 441.476562 685.539062 466.003906 C 679.277344 491.441406 655.21875 512.027344 630.144531 517.988281 C 615.597656 521.449219 600.871094 518.898438 588.660156 510.183594 C 585.871094 508.191406 582.554688 511.46875 583.226562 514.359375 C 588.035156 534.996094 584.40625 557.871094 567.644531 572.179688 C 558.921875 579.625 547.652344 583.15625 536.703125 585.867188 C 525.71875 588.589844 514.015625 590.058594 502.761719 588.183594 C 489.429688 585.960938 478.171875 579.195312 469.453125 568.929688 C 467.277344 566.371094 463.214844 568.554688 463.136719 571.546875 C 463.105469 572.796875 462.964844 574.023438 462.753906 575.226562 C 460.820312 576.179688 459.648438 578.636719 461.238281 580.582031 C 458.253906 588.15625 452.164062 594.566406 445.851562 599.507812 C 435.925781 607.28125 423.953125 612.785156 411.6875 615.617188 C 401.058594 618.070312 390.207031 617.433594 379.539062 615.484375 C 367.539062 613.296875 355.625 609.558594 344.988281 603.515625 C 334.261719 597.417969 324.621094 588.589844 321.675781 576.191406 C 320.859375 572.757812 315.238281 572.570312 314.542969 576.191406 C 314.503906 576.398438 311.578125 587.777344 302.605469 593.953125 C 291.21875 601.046875 274.277344 600.746094 261.136719 598.28125 C 248.570312 595.925781 236.382812 591.570312 225.277344 585.226562 C 214.238281 578.917969 203.207031 571.007812 197.296875 559.410156 C 190.621094 546.300781 192.957031 531.03125 196.90625 517.488281 C 197.792969 514.460938 194.210938 511.570312 191.472656 513.3125 C 171.328125 526.136719 143.136719 526.9375 123.558594 512.460938 C 114.738281 505.9375 108.847656 496.6875 107.171875 485.824219 C 105.628906 475.800781 107.476562 465.03125 112 455.984375 C 117.109375 445.757812 125.648438 437.570312 137.050781 435.15625 C 141.296875 434.253906 140.070312 428.101562 136.070312 427.886719 C 116.777344 426.859375 101.625 411.914062 96.054688 394.050781 C 90.445312 376.070312 94.441406 354.84375 106.4375 340.253906 C 113.230469 331.992188 122.199219 326.070312 132.40625 322.921875 C 135.582031 321.941406 136.253906 316.351562 132.40625 315.785156 C 109.476562 312.410156 99.921875 287.03125 101.640625 266.390625 C 102.613281 254.722656 107.722656 244.792969 114.960938 235.769531 C 122.542969 226.324219 131.957031 218.269531 143.167969 213.46875 C 157.714844 207.246094 173.84375 207.246094 189.089844 210.617188 C 192.027344 211.265625 194.109375 208.875 193.640625 206.066406 C 190.414062 186.730469 198.34375 166.398438 212.71875 153.332031 C 227.746094 139.671875 248.691406 136.574219 267.660156 142.988281 C 278.28125 146.578125 287.695312 153.0625 294.855469 161.671875 C 296.382812 163.507812 298.453125 163.101562 299.757812 161.785156 C 301.277344 161.125 302.4375 159.59375 301.980469 157.523438 C 299.375 145.765625 304.011719 133.441406 310.558594 123.773438 C 317.542969 113.453125 328.082031 105.777344 339.289062 100.578125 C 350.789062 95.246094 363.773438 92.828125 376.40625 94.195312 C 385.964844 95.230469 396.539062 98.363281 403.699219 105.085938 C 411.441406 112.355469 414.035156 122.980469 414.910156 133.214844 C 415.109375 135.527344 416.992188 136.707031 418.8125 136.753906 C 420.65625 137.421875 422.988281 136.847656 423.6875 134.421875 C 428.566406 117.5 443.339844 104.699219 460.605469 101.628906 C 477.527344 98.617188 495.65625 107.023438 505.238281 121.101562 C 510.773438 129.234375 513.257812 138.691406 512.398438 148.492188 C 512.078125 152.148438 517.671875 153.535156 519.292969 150.359375 C 528.824219 131.65625 548.148438 120.09375 569.167969 120.59375 C 578.679688 120.820312 587.996094 123.363281 595.582031 129.261719 C 602.433594 134.589844 607.75 142.125 610.195312 150.464844 C 612.988281 159.984375 611.582031 169.714844 605.574219 177.679688 C 603.28125 180.722656 607.667969 184.5625 610.636719 182.742188 C 629.476562 171.179688 654.664062 176.265625 670.707031 190.433594 C 679.183594 197.917969 684.839844 207.691406 686.78125 218.859375 C 688.855469 230.761719 686.425781 243.320312 681.710938 254.316406 C 676.109375 267.382812 667.058594 279.246094 655.71875 287.851562 C 652.625 290.199219 654.210938 295.917969 658.570312 294.613281 C 677.789062 288.859375 699.503906 299.632812 710.078125 315.9375 C 722.253906 334.707031 715.371094 357.347656 700.359375 372.28125 Z M 351.222656 448.292969 C 349.246094 448.71875 347.363281 449.628906 345.640625 450.839844 C 345.640625 450.277344 345.644531 449.714844 345.640625 449.152344 C 345.640625 447.601562 344.503906 445.929688 342.925781 445.585938 C 333.550781 443.535156 327.269531 454.542969 325.890625 462.335938 C 325.121094 466.695312 325.484375 471.257812 327.875 475.085938 C 328.785156 476.550781 329.902344 477.792969 331.179688 478.796875 C 331.355469 479.078125 331.5625 479.335938 331.800781 479.554688 C 325.714844 487.933594 319.570312 496.28125 313.347656 504.550781 C 307.941406 511.738281 300.6875 520.246094 290.941406 520.535156 C 285.371094 520.699219 279.46875 518.410156 274.515625 516.035156 C 270.15625 513.945312 266.0625 511.296875 262.695312 507.800781 C 255.148438 499.964844 252.90625 488.289062 257.066406 478.253906 C 258.890625 473.859375 251.734375 471.945312 249.933594 476.285156 C 246.1875 485.3125 247.027344 495.75 251.328125 504.433594 C 255.414062 512.6875 263.007812 518.78125 271.222656 522.628906 C 280.175781 526.824219 290.289062 529.941406 299.867188 526 C 308.03125 522.640625 313.953125 515.902344 319.171875 509.027344 C 325.855469 500.234375 332.398438 491.292969 338.886719 482.34375 C 339.140625 482.429688 339.390625 482.535156 339.65625 482.597656 C 342.171875 483.222656 344.886719 483.015625 347.289062 482.054688 C 352.15625 480.109375 355.59375 476.195312 357.769531 471.5 C 358.832031 469.203125 359.722656 466.824219 360.621094 464.457031 C 361.519531 462.085938 362.261719 459.554688 362.019531 456.988281 C 361.488281 451.394531 357.007812 447.054688 351.222656 448.292969 Z M 352.925781 463.945312 C 351.472656 467.722656 349.925781 472.070312 346.320312 474.324219 C 344.792969 475.277344 343.15625 475.804688 341.621094 475.464844 C 341.589844 475.457031 341.558594 475.441406 341.523438 475.433594 C 340.667969 474.128906 338.851562 473.355469 337.183594 473.738281 C 336.890625 473.625 336.585938 473.539062 336.285156 473.445312 C 336.121094 473.347656 335.976562 473.253906 335.90625 473.199219 C 335.148438 472.636719 334.53125 471.832031 334.046875 470.992188 C 332.929688 469.054688 332.605469 466.320312 333.125 463.789062 C 333.710938 460.914062 334.898438 458.050781 336.613281 455.660156 C 337.015625 455.101562 337.6875 454.347656 338.242188 453.839844 C 338.242188 456.046875 338.238281 458.253906 338.242188 460.460938 C 338.25 464.082031 343.324219 465.558594 345.136719 462.328125 C 346.765625 459.421875 349.953125 455.769531 353.390625 455.417969 C 353.691406 455.386719 353.933594 455.671875 353.988281 455.75 C 354.34375 456.277344 354.359375 456.324219 354.496094 456.753906 C 354.519531 456.832031 354.617188 457.378906 354.65625 457.507812 C 354.84375 459.699219 353.695312 461.949219 352.925781 463.945312 Z M 522.542969 473.246094 C 520.9375 482.441406 517.703125 492.835938 510.910156 499.605469 C 503.914062 506.574219 494.664062 508.484375 485.097656 507.65625 C 466.996094 506.085938 452.570312 492.875 448.117188 475.578125 C 452.667969 473.40625 456.308594 469.257812 457.523438 464.003906 C 458.730469 458.761719 457.792969 453.167969 455.191406 448.480469 C 452.492188 443.617188 447.414062 440.003906 441.703125 442.160156 C 438.671875 443.304688 436.597656 445.519531 435.453125 448.175781 C 434.632812 447.8125 433.757812 447.574219 432.855469 447.457031 C 428.496094 446.902344 424.519531 449.316406 422.8125 453.324219 C 419.460938 461.183594 424.011719 471.765625 431.152344 475.925781 C 434.175781 477.691406 437.671875 478.316406 441.042969 477.835938 C 445.019531 493.152344 456.058594 506.066406 470.875 511.863281 C 486.550781 517.996094 507.085938 516.503906 518.164062 502.539062 C 524.378906 494.707031 527.972656 484.980469 529.679688 475.210938 C 530.492188 470.554688 523.363281 468.554688 522.542969 473.246094 Z M 429.703125 462.367188 C 429.203125 460.65625 429.058594 459.835938 429.15625 458.054688 C 429.214844 457.058594 429.609375 455.910156 430.195312 455.277344 C 430.242188 455.222656 430.300781 455.179688 430.355469 455.128906 C 430.375 455.117188 430.371094 455.128906 430.429688 455.085938 C 430.523438 455.03125 430.617188 454.980469 430.710938 454.933594 C 430.796875 454.910156 431.101562 454.835938 431.285156 454.785156 C 431.460938 454.78125 431.765625 454.761719 431.863281 454.757812 C 431.921875 454.769531 432 454.78125 432.136719 454.796875 C 432.230469 454.820312 432.316406 454.851562 432.40625 454.878906 C 432.457031 454.90625 432.503906 454.9375 432.554688 454.964844 C 433.261719 457.566406 435.070312 459.488281 437.773438 460.433594 C 440.359375 461.335938 443.226562 458.46875 442.324219 455.882812 C 442.183594 455.480469 442.050781 455.078125 441.949219 454.664062 C 441.917969 454.53125 441.765625 453.640625 441.800781 453.960938 C 441.753906 453.535156 441.765625 453.109375 441.761719 452.683594 C 441.765625 452.710938 441.785156 452.402344 441.785156 452.300781 C 441.816406 452.1875 441.929688 451.625 441.941406 451.585938 C 442.289062 450.308594 442.816406 449.726562 444.027344 449.160156 C 444.789062 448.804688 445.632812 448.808594 446.40625 449.253906 C 446.710938 449.429688 447.417969 450.09375 447.734375 450.496094 C 448.082031 450.949219 448.652344 451.914062 449.011719 452.59375 C 449.734375 453.976562 450.203125 455.480469 450.515625 457.214844 C 450.578125 457.539062 450.667969 458.695312 450.664062 459.433594 C 450.664062 459.863281 450.636719 460.285156 450.613281 460.710938 C 450.582031 461.207031 450.601562 461.003906 450.476562 461.621094 C 450.113281 463.433594 449.640625 464.484375 448.683594 465.96875 C 448.683594 465.964844 448.59375 466.089844 448.527344 466.183594 C 448.4375 466.285156 448.238281 466.523438 448.207031 466.554688 C 447.953125 466.835938 447.691406 467.105469 447.414062 467.363281 C 446.714844 468.015625 446.789062 467.953125 445.902344 468.488281 C 444.96875 469.050781 444.789062 469.132812 444.054688 469.382812 C 443.980469 469.40625 443.90625 469.421875 443.832031 469.441406 C 443.398438 469.476562 442.972656 469.601562 442.554688 469.78125 C 442.324219 469.820312 442.019531 469.867188 441.960938 469.886719 C 441.523438 469.921875 441.078125 469.945312 440.640625 469.933594 C 440.453125 469.929688 440.269531 469.914062 440.085938 469.90625 C 440.023438 469.902344 439.988281 469.902344 439.960938 469.902344 C 439.535156 469.832031 439.117188 469.734375 438.707031 469.613281 C 438.527344 469.558594 438.351562 469.5 438.175781 469.4375 C 438.121094 469.417969 438.101562 469.414062 438.074219 469.40625 C 438.011719 469.375 437.949219 469.34375 437.851562 469.296875 C 436.734375 468.757812 435.496094 468.761719 434.4375 469.226562 C 432.132812 467.703125 430.5 465.09375 429.703125 462.367188 Z M 468.996094 371.851562 C 472.691406 355.421875 471.792969 336.992188 467.304688 320.78125 C 464.859375 311.957031 460.980469 303.597656 455.546875 296.382812 C 455.703125 295.621094 455.609375 294.777344 455.125 293.910156 C 451.863281 288.097656 445.820312 284.222656 439.984375 281.355469 C 438.121094 280.441406 436.210938 279.613281 434.28125 278.828125 C 434.222656 278.796875 434.164062 278.761719 434.105469 278.730469 C 433.816406 278.59375 433.53125 278.496094 433.25 278.429688 C 428.984375 276.761719 424.597656 275.382812 420.148438 274.402344 C 410.332031 272.234375 400.199219 272.171875 390.230469 273.128906 C 380.957031 274.023438 371.445312 275.199219 362.585938 278.183594 C 345.507812 283.9375 334.714844 297.421875 325.636719 312.3125 C 316.113281 327.941406 307.945312 344.621094 310.707031 363.414062 C 313.226562 380.554688 323.433594 395.441406 337.382812 405.410156 C 351.855469 415.753906 369.742188 420.773438 387.242188 422.679688 C 405.671875 424.691406 424.71875 421.964844 440.472656 411.71875 C 454.664062 402.492188 465.257812 388.476562 468.996094 371.851562 Z M 321.074219 373.726562 C 318.332031 366.734375 317.046875 359.238281 317.582031 351.734375 C 318.195312 343.179688 320.339844 329.933594 324.28125 322.414062 C 331.253906 309.109375 340.957031 299.042969 353.761719 290.550781 C 361.5 285.417969 370.597656 283.238281 379.664062 281.84375 C 389.945312 280.261719 400.507812 279.285156 410.894531 280.355469 C 417.773438 281.0625 427.203125 282.238281 433.644531 284.78125 C 459.773438 297.894531 464.796875 328.78125 463.601562 356.050781 C 462.886719 372.445312 457.367188 387.339844 445.246094 398.671875 C 433.394531 409.757812 415.25 417.738281 399.148438 418.265625 C 368.488281 419.273438 333.195312 404.675781 321.074219 373.726562 Z M 429.714844 329.984375 C 429.226562 329.308594 428.507812 328.640625 427.679688 328.519531 C 426.40625 328.339844 425.367188 328.28125 424.089844 328.59375 C 423.253906 328.800781 422.410156 329.167969 421.691406 329.652344 C 420.210938 330.644531 418.921875 332 418.191406 333.644531 C 417.332031 335.585938 416.964844 337.640625 417.511719 339.738281 C 418.019531 341.691406 419.324219 343.332031 421.011719 344.402344 C 423.847656 346.207031 427.820312 346.054688 430.671875 344.378906 C 431.367188 343.972656 432.042969 343.464844 432.582031 342.863281 C 433.375 341.976562 433.851562 341.140625 434.28125 340.046875 C 434.632812 339.15625 434.773438 338.125 434.730469 337.171875 C 434.671875 335.832031 434.355469 334.710938 433.785156 333.507812 C 433 331.855469 431.460938 330.578125 429.714844 329.984375 Z M 368.507812 330 C 368.851562 329.238281 368.960938 328.375 368.699219 327.570312 C 368.070312 325.628906 366.160156 324.480469 364.148438 324.988281 C 360.34375 325.945312 356.316406 327.75 354.402344 331.398438 C 353.300781 333.5 352.867188 335.902344 353.457031 338.230469 C 353.9375 340.136719 355.183594 341.777344 356.863281 342.792969 C 359.546875 344.417969 363.449219 344.386719 366.066406 342.613281 C 367.070312 341.929688 367.933594 341.039062 368.550781 339.996094 C 369.832031 338.753906 370.570312 336.933594 370.59375 335.167969 C 370.613281 333.273438 369.785156 331.394531 368.507812 330 Z M 414.957031 359.617188 C 413.347656 358.429688 410.828125 359.347656 409.894531 360.945312 C 408.796875 362.824219 409.609375 364.816406 411.222656 366.003906 C 410.789062 365.683594 411.292969 366.242188 411.230469 366.113281 C 411.277344 366.210938 411.300781 366.375 411.320312 366.496094 C 411.414062 367.054688 411.277344 367.75 411.058594 368.269531 C 410.417969 369.800781 409.257812 370.410156 407.445312 370.582031 C 405.066406 370.808594 402.65625 370.144531 400.382812 369.515625 C 398.777344 369.074219 396.589844 368.617188 395.589844 367.140625 C 393.917969 364.664062 390.914062 364.886719 389.203125 367.140625 C 387.316406 369.617188 383.886719 372.4375 380.609375 371.050781 C 380.140625 370.851562 379.707031 370.554688 379.363281 370.179688 C 378.984375 369.765625 378.832031 369.21875 378.816406 369.058594 C 378.714844 368.082031 379.144531 367.5 379.746094 367.335938 C 384.332031 366.078125 382.382812 358.941406 377.777344 360.199219 C 374.277344 361.160156 371.957031 364.128906 371.515625 367.679688 C 371.050781 371.429688 372.894531 374.867188 376.003906 376.929688 C 378.894531 378.851562 382.808594 379.28125 386.09375 378.242188 C 388.65625 377.433594 390.792969 375.996094 392.652344 374.210938 C 394.511719 375.421875 396.660156 376.1875 398.925781 376.789062 C 402.867188 377.835938 407.347656 378.707031 411.304688 377.265625 C 418.523438 374.644531 421.707031 364.59375 414.957031 359.617188 Z M 414.957031 359.617188 " fill-opacity="1" fill-rule="nonzero"/></svg>